<svg xmlns="http://www.w3.org/2000/svg" width="17" height="17" viewBox="0 0 17 17" fill="none">
  <path d="M9.76738 16.7544C9.55179 16.7544 9.34502 16.6688 9.19257 16.5164C9.04012 16.3639 8.95448 16.1571 8.95448 15.9415V10.2512C8.95448 10.0356 9.04012 9.82886 9.19257 9.67641C9.34502 9.52396 9.55179 9.43832 9.76738 9.43832H15.4577C15.6733 9.43832 15.8801 9.52396 16.0325 9.67641C16.185 9.82886 16.2706 10.0356 16.2706 10.2512V15.9415C16.2706 16.1571 16.185 16.3639 16.0325 16.5164C15.8801 16.6688 15.6733 16.7544 15.4577 16.7544H9.76738ZM10.5803 15.1286H14.6448V11.0641H10.5803V15.1286ZM0.825446 16.7544C0.609851 16.7544 0.403085 16.6688 0.250636 16.5164C0.098187 16.3639 0.0125427 16.1571 0.0125427 15.9415V10.2512C0.0125427 10.0356 0.098187 9.82886 0.250636 9.67641C0.403085 9.52396 0.609851 9.43832 0.825446 9.43832H6.51577C6.73136 9.43832 6.93813 9.52396 7.09058 9.67641C7.24303 9.82886 7.32867 10.0356 7.32867 10.2512V15.9415C7.32867 16.1571 7.24303 16.3639 7.09058 16.5164C6.93813 16.6688 6.73136 16.7544 6.51577 16.7544H0.825446ZM1.63835 15.1286H5.70287V11.0641H1.63835V15.1286ZM9.76738 7.81251C9.55179 7.81251 9.34502 7.72686 9.19257 7.57442C9.04012 7.42197 8.95448 7.2152 8.95448 6.99961V1.30928C8.95448 1.09369 9.04012 0.886922 9.19257 0.734473C9.34502 0.582024 9.55179 0.49638 9.76738 0.49638H15.4577C15.6733 0.49638 15.8801 0.582024 16.0325 0.734473C16.185 0.886922 16.2706 1.09369 16.2706 1.30928V6.99961C16.2706 7.2152 16.185 7.42197 16.0325 7.57442C15.8801 7.72686 15.6733 7.81251 15.4577 7.81251H9.76738ZM10.5803 6.1867H14.6448V2.12219H10.5803V6.1867ZM0.825446 7.81251C0.609851 7.81251 0.403085 7.72686 0.250636 7.57442C0.098187 7.42197 0.0125427 7.2152 0.0125427 6.99961V1.30928C0.0125427 1.09369 0.098187 0.886922 0.250636 0.734473C0.403085 0.582024 0.609851 0.49638 0.825446 0.49638H6.51577C6.73136 0.49638 6.93813 0.582024 7.09058 0.734473C7.24303 0.886922 7.32867 1.09369 7.32867 1.30928V6.99961C7.32867 7.2152 7.24303 7.42197 7.09058 7.57442C6.93813 7.72686 6.73136 7.81251 6.51577 7.81251H0.825446ZM1.63835 6.1867H5.70287V2.12219H1.63835V6.1867Z" fill="white"/>
</svg>