<svg width="22" height="18" viewBox="0 0 22 18" fill="none" xmlns="http://www.w3.org/2000/svg">
<path d="M4.88544 0.00658819C4.07187 -0.0124519 3.25787 0.0108818 2.44673 0.0764967C2.13401 0.0705344 1.82331 0.127712 1.53322 0.244644C1.24313 0.361577 0.979616 0.535863 0.758454 0.757025C0.537291 0.978188 0.363027 1.24168 0.246094 1.53177C0.129162 1.82186 0.0719628 2.13258 0.0779251 2.4453C0.0121613 3.25643 -0.0111725 4.07044 0.00801661 4.88401V10.5743C0.00801661 12.4034 -0.105791 11.8596 0.524209 12.7912C0.859003 13.2456 1.35218 13.5577 1.90614 13.6658C2.36137 13.7555 2.8241 13.8018 3.28808 13.804C3.29784 14.0967 3.30759 14.386 3.33604 14.6356C3.32955 14.948 3.38614 15.2586 3.50244 15.5487C3.61873 15.8388 3.79234 16.1025 4.01287 16.3239C4.2334 16.5453 4.49633 16.72 4.78593 16.8375C5.07554 16.955 5.38586 17.0128 5.69834 17.0076C6.1308 17.0564 6.65188 17.0686 7.22741 17.0727C7.25952 17.0763 7.29183 17.0779 7.32415 17.0776H16.2661C17.0796 17.0967 17.8937 17.0733 18.7048 17.0076C19.0175 17.0137 19.3283 16.9566 19.6184 16.8397C19.9086 16.7228 20.1721 16.5486 20.3933 16.3274C20.6145 16.1062 20.7888 15.8426 20.9057 15.5525C21.0225 15.2623 21.0797 14.9516 21.0736 14.6388C21.1392 13.8277 21.1626 13.0137 21.1435 12.2001V10.5743C21.1438 10.542 21.1422 10.5097 21.1386 10.4776C21.1337 9.90286 21.1224 9.38345 21.0736 8.9518C21.0801 8.63878 21.0233 8.32766 20.9066 8.03713C20.7899 7.74661 20.6157 7.48268 20.3945 7.26114C20.1733 7.03961 19.9096 6.86501 19.6192 6.74792C19.3288 6.63083 19.0178 6.57363 18.7048 6.57972C18.4536 6.55127 18.1626 6.54231 17.8683 6.53174C17.8844 6.46414 17.8918 6.39477 17.8903 6.32529C17.9059 5.67578 17.8568 5.02632 17.7439 4.38651C17.6441 3.82735 17.3388 3.32575 16.888 2.9802C15.9572 2.32988 16.4896 2.4453 14.6411 2.4453H12.4828C11.6807 2.49086 10.8773 2.38299 10.1157 2.12746C9.7936 1.99017 9.51328 1.77066 9.30275 1.49094C8.92427 1.04237 8.44787 0.686675 7.91025 0.451244C6.95994 0.112264 5.95267 -0.0382057 4.94478 0.00822551H4.88787L4.88544 0.00658819ZM4.88544 1.63239C5.69739 1.58686 6.51066 1.69468 7.28269 1.95023C7.60732 2.08617 7.89008 2.30583 8.10209 2.58675C8.47752 3.03407 8.95019 3.38968 9.48403 3.62645C10.4448 3.97216 11.4647 4.12331 12.4845 4.0711H14.6403C16.4872 4.0711 15.7848 4.19466 15.9531 4.31497C16.0344 4.37431 16.0848 4.41657 16.1531 4.73442C16.2366 5.26697 16.2734 5.80583 16.2628 6.34479C16.2626 6.40133 16.2683 6.45775 16.2799 6.51309H15.7336C14.9315 6.55855 14.1281 6.45063 13.3665 6.1952C13.0445 6.05781 12.7642 5.83837 12.5536 5.55873C12.1751 5.11014 11.6987 4.75444 11.161 4.51903C10.2102 4.18011 9.20237 4.02959 8.19395 4.07597H8.13705C7.32348 4.0569 6.50948 4.08024 5.69834 4.14588C5.38601 4.13982 5.07567 4.19679 4.78586 4.31338C4.49605 4.42997 4.23271 4.60381 4.0116 4.82447C3.79048 5.04513 3.61611 5.30811 3.49893 5.59768C3.38174 5.88725 3.32413 6.19748 3.32954 6.50981C3.26378 7.32095 3.24045 8.13496 3.25963 8.94852V12.1749C2.92631 12.1696 2.59392 12.1383 2.26545 12.0815C1.96386 12.0115 1.92972 11.9693 1.87038 11.8815C1.75169 11.7059 1.63382 12.4025 1.63382 10.5751V4.8848C1.63382 3.87111 1.6387 3.12247 1.69398 2.63066C1.74926 2.13886 1.84437 1.97054 1.90859 1.90632C1.9728 1.8421 2.13945 1.74865 2.63126 1.69337C3.12306 1.6381 3.87256 1.63239 4.88544 1.63239ZM8.13705 5.69691C8.949 5.65131 9.76228 5.75914 10.5343 6.01475C10.859 6.15062 11.1417 6.37029 11.3537 6.65127C11.7291 7.09859 12.2018 7.4542 12.7356 7.69097C13.6964 8.03664 14.7163 8.18779 15.7361 8.13562H16.2661C17.2798 8.13562 18.0285 8.14048 18.5203 8.19576C19.0121 8.25103 19.1803 8.34617 19.2446 8.41039C19.3088 8.47461 19.4023 8.64129 19.4575 9.13309C19.5128 9.6249 19.5177 10.3744 19.5177 11.3872V12.2001C19.5177 13.213 19.5128 13.9625 19.4575 14.4543C19.4023 14.9461 19.3088 15.1128 19.2446 15.177C19.1803 15.2412 19.0129 15.3396 18.5203 15.3916C18.0276 15.4436 17.2798 15.4518 16.2661 15.4518H8.13705C7.12336 15.4518 6.37468 15.4469 5.88287 15.3916C5.39106 15.3363 5.22279 15.2412 5.15857 15.177C5.09435 15.1128 5.00087 14.9469 4.94559 14.4543C4.89031 13.9617 4.88544 13.213 4.88544 12.2001V8.94852C4.88544 7.93483 4.89031 7.18614 4.94559 6.69433C5.00087 6.20253 5.09598 6.03426 5.1602 5.97005C5.22442 5.90583 5.39106 5.81232 5.88287 5.75705C6.37468 5.70177 7.12417 5.69691 8.13705 5.69691Z" fill="#06152B"/>
</svg>
